# xmcd CD database file
#
# Track frame offsets:
#	150
#	50087
#	99578
#	120450
#	167425
#
# Disc length: 2965 seconds
#
# Revision: 0
# Processed by: cddbd v1.5.2PL0 Copyright (c) Steve Scherf et al.
# Submitted via: CDex 1.77
#
DISCID=380b9305
DTITLE=Catarina Palazzi Sudoko Killer - Infanticide
DYEAR=2015
DGENRE=Jazz
TTITLE0=Sudoku Killer
TTITLE1=Hitori
TTITLE2=Nurikabe
TTITLE3=Futoshiki
TTITLE4=Masyu
EXTD=YEAR: 2015
EXTT0=
EXTT1=
EXTT2=
EXTT3=
EXTT4=
PLAYORDER=
